<?xml version="1.0" encoding="UTF-8"?>
<svg version="1.1" xmlns="http://www.w3.org/2000/svg" width="512" height="140">
<path d="M0 0 C12.21 0 24.42 0 37 0 C37 7.59 37 15.18 37 23 C32.05 23 27.1 23 22 23 C22 32.24 22 41.48 22 51 C26.95 51 31.9 51 37 51 C37 58.92 37 66.84 37 75 C32.05 75 27.1 75 22 75 C22 85.23 22 95.46 22 106 C26.95 106 31.9 106 37 106 C37.495 114.91 37.495 114.91 38 124 C42.11773222 114.91920002 42.11773222 114.91920002 46.21704102 105.83007812 C46.53473953 105.12362152 46.85243805 104.41716492 47.17976379 103.68930054 C47.82878239 102.24600782 48.47769698 100.80266832 49.12651062 99.35928345 C51.19434209 94.76649944 53.29526049 90.19058093 55.4140625 85.62109375 C56.42220286 83.41421224 57.43003377 81.20718934 58.4375 79 C58.91550049 77.9881665 59.39350098 76.97633301 59.88598633 75.93383789 C60.31419678 74.98629639 60.74240723 74.03875488 61.18359375 73.0625 C61.74904907 71.84240234 61.74904907 71.84240234 62.32592773 70.59765625 C64.17143724 63.48566018 60.47033912 56.47050688 57.88671875 49.94921875 C57.47589554 48.89523392 57.06507233 47.84124908 56.64179993 46.75532532 C55.33068845 43.39660088 54.00922673 40.04205932 52.6875 36.6875 C51.80986997 34.44362401 50.93291 32.19948582 50.05664062 29.95507812 C48.43593941 25.8091878 46.8124329 21.66443708 45.18237305 17.5222168 C44.82130463 16.60411224 44.46023621 15.68600769 44.08822632 14.74008179 C43.34475319 12.8680657 42.59155104 10.99989185 41.82998657 9.13516235 C41.27956192 7.78592178 41.27956192 7.78592178 40.71801758 6.40942383 C40.2222094 5.20700798 40.2222094 5.20700798 39.71638489 3.9803009 C39 2 39 2 39 0 C47.25 0 55.5 0 64 0 C68.29 11.22 72.58 22.44 77 34 C80.84259712 25.61711994 80.84259712 25.61711994 84.421875 17.1484375 C84.80730469 16.19582031 85.19273437 15.24320313 85.58984375 14.26171875 C86.37896996 12.29820269 87.16802998 10.33466002 87.95703125 8.37109375 C88.33730469 7.43136719 88.71757812 6.49164062 89.109375 5.5234375 C89.44936523 4.67700684 89.78935547 3.83057617 90.13964844 2.95849609 C91 1 91 1 92 0 C93.78071246 -0.08726223 95.5648314 -0.10699041 97.34765625 -0.09765625 C98.42724609 -0.09443359 99.50683594 -0.09121094 100.61914062 -0.08789062 C102.32360352 -0.07532227 102.32360352 -0.07532227 104.0625 -0.0625 C105.77276367 -0.05573242 105.77276367 -0.05573242 107.51757812 -0.04882812 C110.34510351 -0.03699747 113.1725264 -0.0205141 116 0 C115.40491891 6.00542273 113.04266596 11.13596153 110.703125 16.62890625 C110.27247742 17.65499496 109.84182983 18.68108368 109.39813232 19.73826599 C108.02145655 23.01558946 106.63615604 26.28917638 105.25 29.5625 C104.33269978 31.7373631 103.41602669 33.91249082 102.5 36.08789062 C102.05458359 37.1436882 101.60916718 38.19948578 101.1502533 39.28727722 C100.27203067 41.38240482 99.4019721 43.48097413 98.54029846 45.58296204 C95.10247088 53.95237854 95.10247088 53.95237854 92.99584961 57.69799805 C89.83600325 63.77861219 89.781975 67.72103237 91.74336243 74.12780762 C93.34244851 78.7219165 95.19266452 83.19840293 97.0625 87.6875 C97.82187362 89.60191797 98.57698115 91.51803345 99.32788086 93.43579102 C101.1729945 98.12455652 103.06200583 102.7939545 104.96679688 107.45874023 C106.94369445 112.32110481 108.85914407 117.20693586 110.76147461 122.09887695 C111.60653648 124.26743035 112.465952 126.43046459 113.34204102 128.58666992 C113.71514404 129.52615479 114.08824707 130.46563965 114.47265625 131.43359375 C114.79500244 132.22822021 115.11734863 133.02284668 115.44946289 133.84155273 C116.07282023 136.28550052 115.81842905 137.64336727 115 140 C106.66115894 140.85916578 98.09738587 140.91145531 91 136 C84.18222267 127.16421664 77 109.23790402 77 98 C76.34 98 75.68 98 75 98 C74.83564453 99.03398926 74.83564453 99.03398926 74.66796875 100.08886719 C73.89468741 103.45897197 72.68024795 106.40197015 71.3125 109.578125 C71.04993408 110.19016785 70.78736816 110.80221069 70.5168457 111.43280029 C69.96436791 112.71790632 69.40955793 114.00201198 68.85253906 115.28515625 C67.99763899 117.25544142 67.1506129 119.22897233 66.3046875 121.203125 C62.14763617 130.85236383 62.14763617 130.85236383 61 132 C58.53035867 131.90501379 56.08791592 131.75149421 53.625 131.5625 C40.87303281 130.70456116 28.07635235 130.46259371 15.34765625 131.78125 C10.24213955 132.11486603 5.11640503 132 0 132 C0 88.44 0 44.88 0 0 Z " fill="#D81E25" transform="translate(396,0)"/>
<path d="M0 0 C6.93 0 13.86 0 21 0 C27.05707097 15.23719073 32.5271854 30.64777157 37.9375 46.125 C40.928125 54.66375 43.91875 63.2025 47 72 C47.33 48.24 47.66 24.48 48 0 C55.59 0 63.18 0 71 0 C71 43.23 71 86.46 71 131 C62.75 131.99 54.5 132.98 46 134 C44.74703125 130.30167969 43.4940625 126.60335937 42.203125 122.79296875 C40.97880541 119.18194916 39.75407076 115.5710706 38.52929688 111.96020508 C37.68316022 109.46490933 36.83745012 106.9694689 35.9921875 104.47387695 C34.77197599 100.87151902 33.55019378 97.26969698 32.328125 93.66796875 C31.95504211 92.56543259 31.58195923 91.46289642 31.1975708 90.32695007 C30.83749939 89.26668106 30.47742798 88.20641205 30.10644531 87.11401367 C29.79555969 86.19690109 29.48467407 85.27978851 29.16436768 84.33488464 C27.4901824 79.53982301 25.7356885 74.77314339 24 70 C23.67 92.11 23.34 114.22 23 137 C15.41 137.99 7.82 138.98 0 140 C0 93.8 0 47.6 0 0 Z " fill="#D81E25" transform="translate(0,0)"/>
<path d="M0 0 C20.13 0 40.26 0 61 0 C61 7.59 61 15.18 61 23 C48.13 23 35.26 23 22 23 C22 32.24 22 41.48 22 51 C31.57 51 41.14 51 51 51 C51 58.26 51 65.52 51 73 C41.43 73.33 31.86 73.66 22 74 C22 84.23 22 94.46 22 105 C24.475 104.505 24.475 104.505 27 104 C29.64472319 103.78697279 32.27745655 103.60718765 34.92578125 103.46484375 C36.04716743 103.40037804 36.04716743 103.40037804 37.19120789 103.33460999 C39.56479731 103.19891912 41.9386277 103.06813876 44.3125 102.9375 C45.9277528 102.84602783 47.54298743 102.75423443 49.15820312 102.66210938 C53.1052476 102.43708527 57.05258049 102.21871125 61 102 C61 109.26 61 116.52 61 124 C49.99249156 125.45920861 39.01256948 126.58447496 27.94213867 127.43261719 C25.40828134 127.6272443 22.87504658 127.8288819 20.34179688 128.03125 C18.70576114 128.1592635 17.06969447 128.28688236 15.43359375 128.4140625 C14.68871201 128.47340973 13.94383026 128.53275696 13.17637634 128.59390259 C12.11345116 128.6743129 12.11345116 128.6743129 11.02905273 128.75634766 C10.41779037 128.80360992 9.80652802 128.85087219 9.17674255 128.89956665 C6.12089614 129.04056123 3.05909738 129 0 129 C0 86.43 0 43.86 0 0 Z " fill="#D81E26" transform="translate(91,0)"/>
<path d="M0 0 C20.13 0 40.26 0 61 0 C61 7.59 61 15.18 61 23 C48.13 23 35.26 23 22 23 C22 31.91 22 40.82 22 50 C31.9 50 41.8 50 52 50 C52 57.26 52 64.52 52 72 C42.1 72 32.2 72 22 72 C22 88.17 22 104.34 22 121 C14.74 121 7.48 121 0 121 C0 81.07 0 41.14 0 0 Z " fill="#D71E26" transform="translate(245,0)"/>
<path d="M0 0 C22.11 0 44.22 0 67 0 C67 7.59 67 15.18 67 23 C59.74 23 52.48 23 45 23 C45 55.67 45 88.34 45 122 C33 123 33 123 22 123 C22 90 22 57 22 23 C14.74 23 7.48 23 0 23 C0 15.41 0 7.82 0 0 Z " fill="#D71F26" transform="translate(165,0)"/>
<path d="M0 0 C7.59 0 15.18 0 23 0 C23 33.33 23 66.66 23 101 C31.25 101.33 39.5 101.66 48 102 C51.63 102.33 55.26 102.66 59 103 C59 110.26 59 117.52 59 125 C39.18508086 125.32751932 19.94397226 124.02276781 0 123 C0 82.41 0 41.82 0 0 Z " fill="#D71E25" transform="translate(319,0)"/>
</svg>
